HIERARCHY
ROOT root
{
	OFFSET	0	13.1	24.9
	CHANNELS 6  Xposition Yposition Zposition Xrotation Yrotation Zrotation
	JOINT spine_1
	{
		OFFSET	0	9.99999	0
		CHANNELS 3  Xrotation Yrotation Zrotation
		JOINT spine_2
		{
			OFFSET	0	112	-10
			CHANNELS 3  Xrotation Yrotation Zrotation
			JOINT spine_3
			{
				OFFSET	0	206.5	19.3
				CHANNELS 3  Xrotation Yrotation Zrotation
				JOINT spine_4
				{
					OFFSET	0	110.4	14.6
					CHANNELS 3  Xrotation Yrotation Zrotation
					JOINT neck_1
					{
						OFFSET	0	71.8	-50.3
						CHANNELS 3  Xrotation Yrotation Zrotation
						JOINT neck_2
						{
							OFFSET	0	86.2	-25.8
							CHANNELS 3  Xrotation Yrotation Zrotation
							JOINT head_ee
							{
								OFFSET	0	179.8	-8.7
								CHANNELS 3  Xrotation Yrotation Zrotation
								End Site
								{
									OFFSET	1	0	0
								}
							}
						}
					}
					JOINT left_clavicle
					{
						OFFSET	-43.2	22.4	-70.8
						CHANNELS 3  Xrotation Yrotation Zrotation
						JOINT left_shoulder
						{
							OFFSET	-93.9	-5.79999	48.7
							CHANNELS 3  Xrotation Yrotation Zrotation
							JOINT left_elbow
							{
								OFFSET	-291.4	-30.8	15.2
								CHANNELS 3  Xrotation Yrotation Zrotation
								JOINT left_lowarm_twist
								{
									OFFSET	-110.7	-3.89999	13.6
									CHANNELS 3  Xrotation Yrotation Zrotation
									JOINT left_hand
									{
										OFFSET	-110.7	-3.89999	13.6
										CHANNELS 3  Xrotation Yrotation Zrotation
										JOINT left_ee
										{
											OFFSET	-80.8	-5.10001	12.1
											CHANNELS 3  Xrotation Yrotation Zrotation
											End Site
											{
												OFFSET	1	0	0
											}
										}
									}
								}
							}
						}
					}
					JOINT right_clavicle
					{
						OFFSET	43.2	22.4	-70.8
						CHANNELS 3  Xrotation Yrotation Zrotation
						JOINT right_shoulder
						{
							OFFSET	93.9	-5.79999	48.7
							CHANNELS 3  Xrotation Yrotation Zrotation
							JOINT right_elbow
							{
								OFFSET	291.4	-30.8	15.2
								CHANNELS 3  Xrotation Yrotation Zrotation
								JOINT right_lowarm_twist
								{
									OFFSET	110.7	-3.89999	13.6
									CHANNELS 3  Xrotation Yrotation Zrotation
									JOINT right_hand
									{
										OFFSET	110.7	-3.89999	13.6
										CHANNELS 3  Xrotation Yrotation Zrotation
										JOINT right_ee
										{
											OFFSET	80.8	-5.10001	12.1
											CHANNELS 3  Xrotation Yrotation Zrotation
											End Site
											{
												OFFSET	1	0	0
											}
										}
									}
								}
							}
						}
					}
				}
			}
		}
	}
	JOINT left_hip
	{
		OFFSET	-82.8	-127.5	0.300001
		CHANNELS 3  Xrotation Yrotation Zrotation
		JOINT left_knee
		{
			OFFSET	-28.2	-396.7	2.2
			CHANNELS 3  Xrotation Yrotation Zrotation
			JOINT left_ankle
			{
				OFFSET	-11.7	-411.3	35.4
				CHANNELS 3  Xrotation Yrotation Zrotation
				JOINT left_toes
				{
					OFFSET	0	-60	-88.6
					CHANNELS 3  Xrotation Yrotation Zrotation
					JOINT left_foot_ee
					{
						OFFSET	-22.5	-16.5	-42.2
						CHANNELS 3  Xrotation Yrotation Zrotation
						End Site
						{
							OFFSET	1	0	0
						}
					}
				}
			}
		}
	}
	JOINT right_hip
	{
		OFFSET	82.8	-127.5	0.300001
		CHANNELS 3  Xrotation Yrotation Zrotation
		JOINT right_knee
		{
			OFFSET	28.2	-396.7	2.2
			CHANNELS 3  Xrotation Yrotation Zrotation
			JOINT right_ankle
			{
				OFFSET	11.7	-411.3	35.4
				CHANNELS 3  Xrotation Yrotation Zrotation
				JOINT right_toes
				{
					OFFSET	0	-60	-88.6
					CHANNELS 3  Xrotation Yrotation Zrotation
					JOINT right_foot_ee
					{
						OFFSET	22.5	-16.5	-42.2
						CHANNELS 3  Xrotation Yrotation Zrotation
						End Site
						{
							OFFSET	1	0	0
						}
					}
				}
			}
		}
	}
}
MOTION
Frames: 14
Frame Time: 0.02
3177.02 653.055 -1669.29 -22.0737727966 61.1837376731 16.0411469931 4.12319 0.957472 4.15956 4.13255 0.691089 4.21193 4.17757 0.102353 4.26693 4.153 0.77435 4.19745 -15.2228 10.2802 -3.52182 -15.6327 21.7352 0.231065 -0.0 0.0 -0.0 -8.67921 23.6231 -9.32183 -28.184 -21.3142 75.094 0.248079 -7.00617 0.0151866 -34.8829 -2.42413 3.66946 1.50223 3.60939 11.515 -0.0 0.0 -0.0 11.7777 23.1412 -23.1673 23.6288 13.7889 -68.9323 3.22121 57.9123 -1.78265 14.0544 -0.279456 1.76909 2.9272 16.5047 -12.65 0.0 0.0 0.0 37.2622 8.62773 -6.83592 0.244827 -0.0101589 -0.0361972 4.92492 5.3288 -0.712301 -38.0526 0.0 0.0 -0.0 0.0 -0.0 -7.63227 2.11653 4.79097 -4.78324 -0.167176 -0.714837 40.9416 -0.30683 4.95371 -8.67831 0.0 0.0 0.0 0.0 0.0 
3087.42736951 659.283 -1669.12549463 -23.200671454 60.5625396315 17.6889070748 4.44836 0.825796 4.24379 4.4582 0.554334 4.28763 4.49266 -0.0201289 4.3232 4.4672 0.66226 4.27232 -11.1318 10.0941 -3.58256 -11.2993 21.4288 -0.712581 -0.0 0.0 -0.0 -7.99077 21.9444 -8.92556 -27.3633 -25.2409 73.7208 0.375369 -10.5339 0.0346036 -34.6936 -2.40532 3.6541 1.32647 4.79349 10.792 -0.0 0.0 -0.0 12.7046 24.5864 -25.1529 17.7971 12.6839 -67.8722 3.25144 58.1524 -1.80829 12.5632 -0.270503 1.57884 2.95332 17.696 -12.2506 0.0 0.0 0.0 37.2288 8.35129 -6.54005 -7.454 0.23437 1.11916 6.66318 7.31506 -0.957599 -35.2867 0.0 0.0 -0.0 0.0 -0.0 -9.5777 3.35991 6.74702 -7.52455 -0.235889 -1.12988 40.5204 -0.60828 4.9162 -3.45369 0.0 0.0 0.0 0.0 0.0 
3065.23403567 659.705 -1669.24333018 -23.9096485129 60.3723286166 18.0497237646 4.58268 0.784566 4.2651 4.59265 0.511835 4.30627 4.62363 -0.0549222 4.33618 4.59795 0.629945 4.29062 -10.2713 10.0316 -3.61405 -10.3888 21.321 -0.931843 -0.0 0.0 -0.0 -7.7623 21.4678 -8.75021 -27.4433 -26.3975 72.6419 0.401747 -11.2558 0.0395893 -34.7301 -2.40893 3.65706 1.31342 4.75257 10.6887 -0.0 0.0 -0.0 12.9561 25.0938 -25.679 16.7652 11.9351 -67.3904 3.22443 57.938 -1.78538 12.327 -0.268631 1.54873 2.92623 17.6384 -12.0944 0.0 0.0 0.0 37.2681 8.6524 -6.30296 -8.71869 0.259594 1.31158 7.01966 7.84836 -1.00763 -34.8186 0.0 0.0 -0.0 0.0 -0.0 -9.75822 3.56872 7.26325 -8.15516 -0.24888 -1.22577 40.6411 -0.866341 4.92483 -2.8076 0.0 0.0 0.0 0.0 0.0 
3033.88591329 664.403 -1662.73185826 -23.6432299133 60.5396346414 17.4503722224 4.60788 0.788649 4.56352 4.61932 0.496978 4.60433 4.65058 -0.106499 4.6298 4.62123 0.625243 4.58871 -8.91099 9.91279 -6.1985 -8.88185 22.8483 -3.79064 -0.0 0.0 -0.0 -7.67415 21.761 -8.51813 -26.6207 -27.6484 71.2343 0.460198 -12.8424 0.051792 -34.3426 -2.37058 3.62545 1.49641 4.32551 11.7531 -0.0 0.0 -0.0 12.8378 26.0385 -25.2983 13.6708 10.9668 -67.5203 3.07357 56.6916 -1.6584 13.0279 -0.273824 1.6381 3.0957 20.1617 -11.9947 0.0 0.0 0.0 36.4897 8.10697 -4.24988 -15.4202 0.322064 2.33735 18.4569 7.89724 -2.53778 -33.4082 0.0 0.0 -0.0 0.0 -0.0 -9.98537 7.43361 8.99139 -10.7892 -0.291702 -1.62765 39.9831 -0.92054 4.86838 -0.775424 0.0 0.0 0.0 0.0 0.0 
2983.89767314 668.809 -1659.10315228 -20.118486717 61.0064219177 13.8311188218 4.16284 0.534408 4.15556 4.17241 0.269133 4.18108 4.18602 -0.311803 4.17812 4.16184 0.351376 4.17498 -6.94214 10.778 -7.51011 -6.71408 25.4086 -5.38163 -0.0 0.0 -0.0 -7.33463 21.5537 -8.08272 -23.3912 -29.2334 70.974 0.497057 -13.8328 0.0602953 -34.7153 -2.40747 3.65586 2.19753 4.96973 16.7698 -0.0 0.0 -0.0 12.4039 26.3012 -24.2702 9.89773 9.39249 -66.9566 2.77298 53.936 -1.41116 12.0069 -0.265895 1.50793 3.14125 21.2197 -11.7668 0.0 0.0 0.0 33.0986 9.47928 -1.98481 -25.0345 0.202013 3.806 30.3457 9.32904 -3.93111 -31.2573 0.0 0.0 -0.0 0.0 -0.0 -8.44038 11.2261 10.8537 -23.208 -0.243768 -3.52882 40.4486 -4.79582 4.89641 4.34802 -0.0 -0.0 0.0 0.0 0.0 
2961.39544129 672.242 -1660.00916596 -18.1807420854 61.0249653362 12.1883082217 4.05302 0.445342 4.09139 4.06231 0.184318 4.11139 4.06996 -0.39467 4.09658 4.04664 0.256699 4.10752 -6.70379 11.3121 -7.30132 -6.46316 26.2501 -5.12154 -0.0 0.0 -0.0 -7.37782 22.2032 -7.93122 -20.2509 -32.0687 68.7678 0.526711 -14.6236 0.067584 -36.3509 -2.5717 3.78645 2.51681 6.30037 19.4701 -0.0 0.0 -0.0 12.483 25.7952 -24.5099 7.45817 8.29598 -67.9155 2.44881 50.4916 -1.15485 12.003 -0.265861 1.50744 3.11118 21.3505 -11.4991 0.0 0.0 0.0 30.3399 8.13134 -0.583603 -26.1128 0.173221 3.96896 35.2221 10.1293 -4.43401 -32.3459 0.0 0.0 -0.0 0.0 -0.0 -7.61649 13.0386 11.0791 -27.1921 -0.141332 -4.13154 38.9996 -6.03424 4.77079 6.33222 -0.0 -0.0 0.0 0.0 0.0 
2961.38158165 672.242 -1660.33697078 -18.1318102356 60.9422005858 12.1323529182 4.05302 0.445342 4.09139 4.06231 0.184318 4.11139 4.06996 -0.39467 4.09658 4.04664 0.256699 4.10752 -6.70379 11.3121 -7.30132 -6.46316 26.2501 -5.12154 -0.0 0.0 -0.0 -7.37782 22.2032 -7.93122 -20.2509 -32.0687 68.7678 0.526711 -14.6236 0.067584 -36.3509 -2.5717 3.78645 2.51681 6.30037 19.4701 -0.0 0.0 -0.0 12.483 25.7952 -24.5099 7.45817 8.29598 -67.9155 2.44881 50.4916 -1.15485 12.003 -0.265861 1.50744 3.11118 21.3505 -11.4991 0.0 0.0 0.0 30.3399 8.13134 -0.583603 -26.1128 0.173221 3.96896 35.2221 10.1293 -4.43401 -32.3459 0.0 0.0 -0.0 0.0 -0.0 -7.61649 13.0386 11.0791 -27.1921 -0.141332 -4.13154 38.9996 -6.03424 4.77079 6.33222 -0.0 -0.0 0.0 0.0 0.0 
2961.36237886 672.242 -1660.81210856 -18.0614104374 60.8222052551 12.0517690638 4.05302 0.445342 4.09139 4.06231 0.184318 4.11139 4.06996 -0.39467 4.09658 4.04664 0.256699 4.10752 -6.70379 11.3121 -7.30132 -6.46316 26.2501 -5.12154 -0.0 0.0 -0.0 -7.37782 22.2032 -7.93122 -20.2509 -32.0687 68.7678 0.526711 -14.6236 0.067584 -36.3509 -2.5717 3.78645 2.51681 6.30037 19.4701 -0.0 0.0 -0.0 12.483 25.7952 -24.5099 7.45817 8.29598 -67.9155 2.44881 50.4916 -1.15485 12.003 -0.265861 1.50744 3.11118 21.3505 -11.4991 0.0 0.0 0.0 30.3399 8.13134 -0.583603 -26.1128 0.173221 3.96896 35.2221 10.1293 -4.43401 -32.3459 0.0 0.0 -0.0 0.0 -0.0 -7.61649 13.0386 11.0791 -27.1921 -0.141332 -4.13154 38.9996 -6.03424 4.77079 6.33222 -0.0 -0.0 0.0 0.0 0.0 
2921.57164627 673.552 -1675.54548383 -15.9284317844 61.1690228552 10.075250365 3.93979 0.248939 3.89149 3.94821 0.0010006 3.89944 3.94347 -0.555295 3.85976 3.9227 0.06077 3.89896 -7.73583 11.1166 -6.88625 -7.60509 25.5865 -4.47731 -0.0 0.0 -0.0 -6.48861 18.1207 -7.85996 -14.9184 -33.532 66.6709 0.543639 -15.0725 0.0719219 -35.3495 -2.47071 3.70705 2.47616 7.02678 19.449 -0.0 0.0 -0.0 12.6363 23.4792 -25.1076 3.6421 7.63527 -69.4335 1.7723 41.2776 -0.667578 10.4262 -0.249048 1.30673 2.96545 19.0751 -11.6566 0.0 0.0 0.0 26.5452 7.2098 0.687233 -26.0914 0.173823 3.96573 39.3367 12.02 -4.8354 -31.9481 0.0 0.0 -0.0 0.0 -0.0 -4.34232 15.865 9.72176 -36.6033 0.264932 -5.51689 35.0529 -6.69835 4.40441 9.76544 -0.0 -0.0 0.0 0.0 0.0 
2921.54471413 673.552 -1674.32694431 -16.0660057645 61.4317370161 10.2320920693 3.93979 0.248939 3.89149 3.94821 0.0010006 3.89944 3.94347 -0.555295 3.85976 3.9227 0.06077 3.89896 -7.73583 11.1166 -6.88625 -7.60509 25.5865 -4.47731 -0.0 0.0 -0.0 -6.48861 18.1207 -7.85996 -14.9184 -33.532 66.6709 0.543639 -15.0725 0.0719219 -35.3495 -2.47071 3.70705 2.47616 7.02678 19.449 -0.0 0.0 -0.0 12.6363 23.4792 -25.1076 3.6421 7.63527 -69.4335 1.7723 41.2776 -0.667578 10.4262 -0.249048 1.30673 2.96545 19.0751 -11.6566 0.0 0.0 0.0 26.5452 7.2098 0.687233 -26.0914 0.173823 3.96573 39.3367 12.02 -4.8354 -31.9481 0.0 0.0 -0.0 0.0 -0.0 -4.34232 15.865 9.72176 -36.6033 0.264932 -5.51689 35.0529 -6.69835 4.40441 9.76544 -0.0 -0.0 0.0 0.0 0.0 
2905.21881888 674.701 -1675.90719278 -12.9027365441 61.1986061314 7.61460577199 3.71539 0.197452 3.79113 3.72338 -0.0440106 3.79601 3.71637 -0.600027 3.74861 3.69676 -0.000916526 3.79626 -6.7952 10.8817 -7.92334 -6.53018 25.8988 -5.82041 -0.0 0.0 -0.0 -6.37065 16.7772 -8.0651 -12.7614 -34.6591 65.3915 0.558838 -15.4739 0.0759256 -36.0472 -2.54093 3.76256 2.60525 6.14272 20.0305 -0.0 0.0 -0.0 13.0957 25.8202 -25.9194 0.904695 7.39593 -69.2681 1.56854 37.8447 -0.537743 9.98479 -0.243352 1.25064 2.99818 19.5321 -11.6515 0.0 0.0 0.0 26.076 8.41854 -0.1331 -32.5851 -0.0635992 4.9335 42.063 14.1511 -5.10023 -29.9314 0.0 0.0 -0.0 0.0 -0.0 -3.54386 16.7072 8.92683 -38.6961 0.385907 -5.81489 39.6314 -6.17401 4.82675 9.59194 -0.0 -0.0 0.0 0.0 0.0 
2878.63735335 688.778 -1685.49144057 -9.98350819339 59.6597909591 4.86664928818 3.31895 0.309732 3.79095 3.32694 0.0680545 3.80295 3.32823 -0.515532 3.76851 3.30842 0.0856583 3.8026 -7.98444 11.0268 -4.91073 -7.94975 24.0348 -2.45297 -0.0 0.0 -0.0 -6.09602 15.6641 -7.93426 -7.06467 -36.917 62.7189 0.653528 -17.9389 0.103152 -37.7886 -2.71911 3.89735 2.38291 7.7932 19.0765 -0.0 0.0 -0.0 13.2256 23.6101 -26.461 -2.71584 5.94914 -69.742 0.974807 25.775 -0.223042 9.46193 -0.236047 1.18425 2.88573 22.5525 -9.39242 0.0 0.0 0.0 19.8304 3.32464 2.17166 -23.5889 0.23579 3.58673 38.7024 13.5293 -4.79477 -31.3642 0.0 0.0 -0.0 0.0 -0.0 4.24051 18.4491 6.50219 -48.9058 1.12821 -7.19663 40.2384 -5.00187 4.87837 10.6798 -0.0 -0.0 0.0 0.0 0.0 
2878.19798344 688.778 -1668.98517791 -11.0350444845 62.7732465424 6.06597003039 3.31895 0.309732 3.79095 3.32694 0.0680545 3.80295 3.32823 -0.515532 3.76851 3.30842 0.0856583 3.8026 -7.98444 11.0268 -4.91073 -7.94975 24.0348 -2.45297 -0.0 0.0 -0.0 -6.09602 15.6641 -7.93426 -7.06467 -36.917 62.7189 0.653528 -17.9389 0.103152 -37.7886 -2.71911 3.89735 2.38291 7.7932 19.0765 -0.0 0.0 -0.0 13.2256 23.6101 -26.461 -2.71584 5.94914 -69.742 0.974807 25.775 -0.223042 9.46193 -0.236047 1.18425 2.88573 22.5525 -9.39242 0.0 0.0 0.0 19.8304 3.32464 2.17166 -23.5889 0.23579 3.58673 38.7024 13.5293 -4.79477 -31.3642 0.0 0.0 -0.0 0.0 -0.0 4.24051 18.4491 6.50219 -48.9058 1.12821 -7.19663 40.2384 -5.00187 4.87837 10.6798 -0.0 -0.0 0.0 0.0 0.0 
2862.73545281 697.554 -1659.82744758 -10.4377680627 65.0525628338 5.40057329783 3.16003 0.332904 3.82228 3.16815 0.0891898 3.83569 3.17119 -0.51007 3.80272 3.15103 0.0964424 3.83552 -8.94569 11.5025 -3.43769 -9.02147 23.9311 -0.659633 -0.0 0.0 -0.0 -6.2296 14.3715 -8.51739 -4.30738 -38.0056 61.5431 0.664147 -18.2112 0.106447 -38.9507 -2.84027 3.98429 2.34221 8.12821 18.9145 -0.0 0.0 -0.0 13.1835 22.135 -26.5024 -4.05298 5.17754 -70.0976 0.646152 17.7492 -0.100892 8.99207 -0.228965 1.12465 2.94758 24.4965 -8.81498 0.0 0.0 0.0 15.4083 2.40769 3.54656 -17.8094 0.315281 2.70384 35.8287 13.7986 -4.52552 -32.4178 0.0 0.0 -0.0 0.0 -0.0 12.0451 19.3527 3.66858 -59.3572 2.13098 -8.45425 40.2723 -5.4541 4.88149 11.6243 -0.0 -0.0 0.0 0.0 0.0 
